<svg xmlns="http://www.w3.org/2000/svg" version="1.1"
  xmlns:xlink="http://www.w3.org/1999/xlink"
  xmlns:svgjs="http://svgjs.dev/svgjs" width="80" height="90" viewBox="0 0 320 360">
  <g transform="matrix(1,0,0,1,0,0)">
    <svg viewBox="0 0 320 360" data-background-color="#ffffff" preserveAspectRatio="xMidYMid meet" height="360" width="320"
      xmlns="http://www.w3.org/2000/svg"
      xmlns:xlink="http://www.w3.org/1999/xlink">
      <g id="tight-bounds" transform="matrix(1,0,0,1,0,0)">
        <svg viewBox="0 0 320 360" height="360" width="320">
          <g>
            <svg></svg>
          </g>
          <g>
            <svg viewBox="0 0 320 360" height="360" width="320">
              <g>
                <path d="M160 42.18c72.417 0 131.943 56.114 137.63 127.014h22.37c-1.137-17.82-5.308-34.882-12.133-51.185-7.962-18.957-19.716-36.398-34.502-50.805-14.787-14.787-31.848-26.161-50.806-34.503-20.095-8.341-40.948-12.891-62.559-12.891-21.611 0-42.464 4.171-62.559 12.512-18.957 7.962-36.398 19.716-50.806 34.503-14.787 14.787-26.161 31.848-34.502 50.805-6.825 16.303-10.995 33.744-12.133 51.185h22.37c5.687-70.521 65.213-126.635 137.63-126.635zM160 318.199c-72.417 0-131.943-56.114-137.63-127.014h-22.37c1.137 17.82 5.308 34.882 12.133 51.185 7.962 18.957 19.716 36.398 34.502 50.805 14.787 14.787 31.848 26.161 50.806 34.503 19.716 8.341 40.569 12.512 62.559 12.512 21.991 0 42.464-4.171 62.559-12.512 18.957-7.962 36.398-19.716 50.806-34.503 14.787-14.787 26.161-31.848 34.502-50.805 6.825-16.303 10.995-33.744 12.133-51.185h-22.37c-5.687 70.9-65.213 127.014-137.63 127.014z" fill="#188fff" fill-rule="nonzero" stroke="none" stroke-width="1" stroke-linecap="butt" stroke-linejoin="miter" stroke-miterlimit="10" stroke-dasharray="" stroke-dashoffset="0" font-family="none" font-weight="none" font-size="none" text-anchor="none" style="mix-blend-mode: normal" data-fill-palette-color="tertiary"></path>
              </g>
              <g transform="matrix(1,0,0,1,56,120.03367003367003)">
                <svg viewBox="0 0 208 119.93265993265993" height="119.93265993265993" width="208">
                  <g>
                    <svg viewBox="0 0 208 119.93265993265993" height="119.93265993265993" width="208">
                      <g>
                        <svg viewBox="0 0 208 119.93265993265993" height="119.93265993265993" width="208">
                          <g>
                            <svg viewBox="0 0 208 119.93265993265993" height="119.93265993265993" width="208">
                              <g id="textblocktransform">
                                <svg viewBox="0 0 208 119.93265993265993" height="119.93265993265993" width="208" id="textblock">
                                  <g>
                                    <svg viewBox="0 0 208 119.93265993265993" height="119.93265993265993" width="208">
                                      <g transform="matrix(1,0,0,1,0,0)">
                                        <svg width="208" viewBox="-0.1 -33.45 58.01 33.45" height="119.93265993265993" data-palette-color="#188fff">
                                          <path d="M21.04-11.06L21.04-13.65 13.55-13.65 13.55-31.25 10.96-31.25 10.96-11.06 21.04-11.06ZM10.69-33.45L18.21-33.45Q20.68-33.45 22.68-32.71 24.68-31.98 26.09-30.71 27.49-29.44 28.25-27.75 29-26.05 29-24.15L29-24.15 29-9.3Q29-7.4 28.25-5.7 27.49-4 26.09-2.73 24.68-1.46 22.68-0.73 20.68 0 18.21 0L18.21 0 10.69 0Q8.23 0 6.23-0.73 4.22-1.46 2.82-2.73 1.42-4 0.66-5.7-0.1-7.4-0.1-9.3L-0.1-9.3-0.1-24.15Q-0.1-26.05 0.66-27.75 1.42-29.44 2.82-30.71 4.22-31.98 6.23-32.71 8.23-33.45 10.69-33.45L10.69-33.45ZM49.66-30.91L46.8-31.25 40.92-31.25 38.4-30.96 36.86-29.39 36.5-27.34 36.5-14.94 36.86-12.89 38.45-11.35 40.92-11.06 46.8-11.06 49.66-11.4 49.05-14.04 46.75-13.65 41.06-13.65 39.45-13.89 39.11-15.36 39.11-27.1 39.35-28.44 41.06-28.71 46.65-28.71 49.17-28.3 49.66-30.91ZM39.6-33.45L47.12-33.45Q49.58-33.45 51.58-32.71 53.59-31.98 54.99-30.71 56.39-29.44 57.15-27.75 57.91-26.05 57.91-24.15L57.91-24.15 57.91-9.3Q57.91-7.4 57.15-5.7 56.39-4 54.99-2.73 53.59-1.46 51.58-0.73 49.58 0 47.12 0L47.12 0 39.6 0Q37.13 0 35.13-0.73 33.13-1.46 31.72-2.73 30.32-4 29.56-5.7 28.81-7.4 28.81-9.3L28.81-9.3 28.81-24.15Q28.81-26.05 29.56-27.75 30.32-29.44 31.72-30.71 33.13-31.98 35.13-32.71 37.13-33.45 39.6-33.45L39.6-33.45Z" opacity="1" transform="matrix(1,0,0,1,0,0)" fill="#188fff" class="wordmark-text-0" data-fill-palette-color="primary" id="text-0"></path>
                                        </svg>
                                      </g>
                                    </svg>
                                  </g>
                                </svg>
                              </g>
                            </svg>
                          </g>
                          <g></g>
                        </svg>
                      </g>
                    </svg>
                  </g>
                </svg>
              </g>
            </svg>
          </g>
          <defs></defs>
        </svg>
        <rect width="320" height="360" fill="none" stroke="none" visibility="hidden"></rect>
      </g>
    </svg>
  </g>
</svg>